# xmcd
#
# Track frame offsets: 
#        150
#        12246
#        23668
#        35945
#        43400
#        56188
#        69084
#        77940
#        92703
#        105093
#        115401
#        127635
#        139706
#        150313
#        163624
#        174588
#        183714
#        194429
#        207295
#        219395
#
# Disc length: 3114 seconds
#
# Revision: 0
# Processed by: cddbd v1.5.2PL0 Copyright (c) Steve Scherf et al.
# Submitted via: ExactAudioCopyFreeDBPlugin 1.0
#
DISCID=110c2814
DTITLE=Various Artist - 20 Redneck Country Hits
DYEAR=2007
DGENRE=Country
TTITLE0=Johnny Paycheck - Take This Job And Shove It
TTITLE1=George Jones - White Lightning
TTITLE2=Johnny Russell - Rednecks, White Socks And Blue Ribbon Beer
TTITLE3=Willie Nelson - I Gotta Get Drunk
TTITLE4=Johnny Cash - Folsom Prison Blues
TTITLE5=Merle Haggard - Fightin' Side Of Me, The
TTITLE6=David Allan Coe - Fuzzy Was An Outlaw
TTITLE7=Johnny Cash and Waylon Jennings - There Ain't No Good Chain Gang
TTITLE8=Freddy Fender - Wasted Days And Wasted Nights
TTITLE9=Faron Young - Live Fast, Love Hard, Die Young
TTITLE10=Hank Williams - Lost Highway
TTITLE11=Johnny Paycheck - Born Hell Raiser
TTITLE12=Webb Pierce - In The Jailhouse Now
TTITLE13=Hank Thompson - Wild Side Of Life, The
TTITLE14=Carl Perkins - Dixie Friend
TTITLE15=Roger Miller - Chug-A-Lug
TTITLE16=George Jones - Who Shot Sam
TTITLE17=Merle Haggard - Swinging Doors
TTITLE18=Johnny Lee - Hey Bartender
TTITLE19=Cal Smith - Lord Knows I'm Drinking, The
EXTD=
EXTT0=
EXTT1=
EXTT2=
EXTT3=
EXTT4=
EXTT5=
EXTT6=
EXTT7=
EXTT8=
EXTT9=
EXTT10=
EXTT11=
EXTT12=
EXTT13=
EXTT14=
EXTT15=
EXTT16=
EXTT17=
EXTT18=
EXTT19=
PLAYORDER=
